<svg width="26" height="26" viewBox="0 0 26 26" fill="none" xmlns="http://www.w3.org/2000/svg">
<path d="M17.2996 17.6772L14.3489 23.8772C14.2931 23.9944 14.2096 24.0963 14.1056 24.1741C14.0016 24.2518 13.8802 24.303 13.752 24.3234C13.6238 24.3437 13.4925 24.3326 13.3695 24.2908C13.2466 24.2491 13.1356 24.1781 13.0463 24.0839L8.32361 19.0985C8.19744 18.9655 8.0294 18.8798 7.84761 18.8559L1.03827 17.9652C0.909624 17.9483 0.787027 17.9003 0.681057 17.8254C0.575087 17.7505 0.488926 17.6509 0.430004 17.5353C0.371081 17.4197 0.341167 17.2915 0.34284 17.1617C0.344513 17.032 0.377724 16.9046 0.439608 16.7905L3.72227 10.7585C3.80954 10.5972 3.83873 10.4108 3.80494 10.2305L2.54761 3.47988C2.52373 3.3521 2.53135 3.22043 2.56981 3.09626C2.60826 2.97209 2.6764 2.85916 2.76831 2.76725C2.86023 2.67533 2.97316 2.6072 3.09733 2.56874C3.22149 2.53029 3.35316 2.52267 3.48094 2.54654L10.2316 3.80388C10.4119 3.83766 10.5983 3.80848 10.7596 3.72121L16.7916 0.438543C16.9058 0.376642 17.0333 0.343459 17.1631 0.341858C17.2929 0.340257 17.4212 0.370287 17.5369 0.429355C17.6525 0.488422 17.752 0.574752 17.8268 0.680888C17.9017 0.787024 17.9495 0.909776 17.9663 1.03854L18.8569 7.84654C18.8809 8.02833 18.9666 8.19637 19.0996 8.32254L24.0849 13.0452C24.1791 13.1346 24.2502 13.2455 24.2919 13.3685C24.3336 13.4914 24.3448 13.6227 24.3245 13.7509C24.3041 13.8792 24.2529 14.0005 24.1751 14.1045C24.0974 14.2085 23.9955 14.2921 23.8783 14.3479L17.6783 17.2985C17.5123 17.3775 17.3786 17.5112 17.2996 17.6772ZM18.3623 20.2465L20.2476 18.3612L25.9049 24.0172L24.0183 25.9039L18.3623 20.2465Z" fill="white"/>
</svg>
