<svg width="28" height="27" viewBox="0 0 28 27" fill="none" xmlns="http://www.w3.org/2000/svg">
<path d="M26.0003 24H15.3337V4C15.3337 2.93913 15.7551 1.92172 16.5052 1.17157C17.2554 0.421427 18.2728 0 19.3337 0H26.0003C26.3539 0 26.6931 0.140476 26.9431 0.390524C27.1932 0.640573 27.3337 0.979711 27.3337 1.33333V22.6667C27.3337 23.0203 27.1932 23.3594 26.9431 23.6095C26.6931 23.8595 26.3539 24 26.0003 24ZM12.667 24H2.00033C1.6467 24 1.30756 23.8595 1.05752 23.6095C0.807468 23.3594 0.666992 23.0203 0.666992 22.6667V1.33333C0.666992 0.979711 0.807468 0.640573 1.05752 0.390524C1.30756 0.140476 1.6467 0 2.00033 0H8.66699C9.72786 0 10.7453 0.421427 11.4954 1.17157C12.2456 1.92172 12.667 2.93913 12.667 4V24ZM12.667 24H15.3337V26.6667H12.667V24Z" fill="white"/>
</svg>
