<svg width="28" height="28" viewBox="0 0 28 28" fill="none" xmlns="http://www.w3.org/2000/svg">
<path d="M13.9974 27.3346C6.6334 27.3346 0.664062 21.3653 0.664062 14.0013C0.664062 6.6373 6.6334 0.667969 13.9974 0.667969C21.3614 0.667969 27.3307 6.6373 27.3307 14.0013C27.3307 21.3653 21.3614 27.3346 13.9974 27.3346ZM13.9974 24.668C16.8264 24.668 19.5395 23.5442 21.5399 21.5438C23.5403 19.5434 24.6641 16.8303 24.6641 14.0013C24.6641 11.1723 23.5403 8.45922 21.5399 6.45883C19.5395 4.45844 16.8264 3.33464 13.9974 3.33464C11.1684 3.33464 8.45531 4.45844 6.45493 6.45883C4.45454 8.45922 3.33073 11.1723 3.33073 14.0013C3.33073 16.8303 4.45454 19.5434 6.45493 21.5438C8.45531 23.5442 11.1684 24.668 13.9974 24.668ZM7.33073 15.3346H9.9974C9.9974 16.3955 10.4188 17.4129 11.169 18.1631C11.9191 18.9132 12.9365 19.3346 13.9974 19.3346C15.0583 19.3346 16.0757 18.9132 16.8258 18.1631C17.576 17.4129 17.9974 16.3955 17.9974 15.3346H20.6641C20.6641 17.1027 19.9617 18.7984 18.7114 20.0487C17.4612 21.2989 15.7655 22.0013 13.9974 22.0013C12.2293 22.0013 10.5336 21.2989 9.28335 20.0487C8.03311 18.7984 7.33073 17.1027 7.33073 15.3346ZM8.66406 12.668C8.13363 12.668 7.62492 12.4573 7.24985 12.0822C6.87478 11.7071 6.66406 11.1984 6.66406 10.668C6.66406 10.1375 6.87478 9.62883 7.24985 9.25376C7.62492 8.87868 8.13363 8.66797 8.66406 8.66797C9.1945 8.66797 9.70321 8.87868 10.0783 9.25376C10.4534 9.62883 10.6641 10.1375 10.6641 10.668C10.6641 11.1984 10.4534 11.7071 10.0783 12.0822C9.70321 12.4573 9.1945 12.668 8.66406 12.668ZM19.3307 12.668C18.8003 12.668 18.2916 12.4573 17.9165 12.0822C17.5414 11.7071 17.3307 11.1984 17.3307 10.668C17.3307 10.1375 17.5414 9.62883 17.9165 9.25376C18.2916 8.87868 18.8003 8.66797 19.3307 8.66797C19.8612 8.66797 20.3699 8.87868 20.7449 9.25376C21.12 9.62883 21.3307 10.1375 21.3307 10.668C21.3307 11.1984 21.12 11.7071 20.7449 12.0822C20.3699 12.4573 19.8612 12.668 19.3307 12.668Z" fill="white"/>
</svg>
