<svg width="28" height="28" viewBox="0 0 28 28" fill="none" xmlns="http://www.w3.org/2000/svg">
<path d="M13.9974 0.667969C21.3614 0.667969 27.3307 6.6373 27.3307 14.0013C27.3307 14.9706 27.2281 15.9146 27.0307 16.8253L24.6547 14.448C24.7526 12.1076 24.0773 9.80017 22.7332 7.8818C21.3891 5.96342 19.451 4.54082 17.2179 3.8336C14.9848 3.12638 12.5811 3.17388 10.3777 3.96875C8.17429 4.76363 6.29382 6.26169 5.02656 8.23166C3.7593 10.2016 3.17572 12.534 3.36593 14.8686C3.55613 17.2033 4.50953 19.4104 6.07895 21.1492C7.64836 22.8881 9.74652 24.062 12.0495 24.4898C14.3525 24.9175 16.7323 24.5753 18.8214 23.516C19.3303 24.3225 20.0463 24.9778 20.8947 25.4133C18.815 26.6734 16.4291 27.338 13.9974 27.3346C6.6334 27.3346 0.664062 21.3653 0.664062 14.0013C0.664062 6.6373 6.6334 0.667969 13.9974 0.667969ZM23.3307 16.8973L25.2161 18.7826C25.5831 19.1495 25.8351 19.6155 25.9411 20.1235C26.0472 20.6315 26.0028 21.1594 25.8133 21.6425C25.6237 22.1256 25.2974 22.5429 24.8742 22.8432C24.451 23.1436 23.9494 23.3139 23.4308 23.3334C22.9123 23.3528 22.3993 23.2206 21.9548 22.9528C21.5102 22.685 21.1535 22.2934 20.9283 21.8258C20.7031 21.3583 20.6192 20.8352 20.6869 20.3207C20.7546 19.8062 20.9709 19.3227 21.3094 18.9293L21.4454 18.7826L23.3307 16.8973ZM13.9974 18.0013C15.9521 18.0013 17.7107 18.8426 18.9307 20.184L17.6707 21.3306C16.6174 20.9106 15.3547 20.668 13.9974 20.668C12.6401 20.668 11.3774 20.912 10.3241 21.3293L9.06406 20.1826C9.68835 19.4946 10.4499 18.945 11.2996 18.5693C12.1493 18.1935 13.0683 18.0001 13.9974 18.0013ZM9.33073 11.3346C9.86116 11.3346 10.3699 11.5453 10.7449 11.9204C11.12 12.2955 11.3307 12.8042 11.3307 13.3346C11.3307 13.8651 11.12 14.3738 10.7449 14.7488C10.3699 15.1239 9.86116 15.3346 9.33073 15.3346C8.8003 15.3346 8.29159 15.1239 7.91652 14.7488C7.54144 14.3738 7.33073 13.8651 7.33073 13.3346C7.33073 12.8042 7.54144 12.2955 7.91652 11.9204C8.29159 11.5453 8.8003 11.3346 9.33073 11.3346ZM18.6641 11.3346C19.1945 11.3346 19.7032 11.5453 20.0783 11.9204C20.4534 12.2955 20.6641 12.8042 20.6641 13.3346C20.6641 13.8651 20.4534 14.3738 20.0783 14.7488C19.7032 15.1239 19.1945 15.3346 18.6641 15.3346C18.1336 15.3346 17.6249 15.1239 17.2499 14.7488C16.8748 14.3738 16.6641 13.8651 16.6641 13.3346C16.6641 12.8042 16.8748 12.2955 17.2499 11.9204C17.6249 11.5453 18.1336 11.3346 18.6641 11.3346Z" fill="white"/>
</svg>
