<svg width="28" height="26" viewBox="0 0 28 26" fill="none" xmlns="http://www.w3.org/2000/svg">
<path d="M16.667 20V22.6667L19.3337 24V25.3333H8.66705L8.66171 24.0053L11.3337 22.6667V20H1.98971C1.81463 19.999 1.64147 19.9634 1.48016 19.8953C1.31886 19.8272 1.17258 19.7279 1.0497 19.6032C0.926828 19.4785 0.829778 19.3307 0.764114 19.1684C0.69845 19.0061 0.665464 18.8324 0.667047 18.6573V1.34267C0.667047 0.601333 1.27371 0 1.98971 0H26.011C26.7417 0 27.3337 0.598667 27.3337 1.34267V18.6573C27.3337 19.3987 26.727 20 26.011 20H16.667ZM3.33371 2.66667V14.6667H24.667V2.66667H3.33371Z" fill="white"/>
</svg>
