<svg width="24" height="24" viewBox="0 0 24 24" fill="none" xmlns="http://www.w3.org/2000/svg">
<path fill-rule="evenodd" clip-rule="evenodd" d="M12.0002 15.4998C11.7442 15.4998 11.4883 15.4018 11.2933 15.2068L7.29325 11.2068C6.90225 10.8158 6.90225 10.1838 7.29325 9.79276C7.68425 9.40176 8.31625 9.40176 8.70725 9.79276L12.0122 13.0978L15.3053 9.91776C15.7043 9.53476 16.3352 9.54576 16.7192 9.94276C17.1032 10.3398 17.0922 10.9738 16.6952 11.3568L12.6953 15.2188C12.5002 15.4068 12.2502 15.4998 12.0002 15.4998Z" fill="#2C334F"/>
<mask id="mask0_900_6471" style="mask-type:alpha" maskUnits="userSpaceOnUse" x="7" y="9" width="10" height="7">
<path fill-rule="evenodd" clip-rule="evenodd" d="M12.0002 15.4998C11.7442 15.4998 11.4883 15.4018 11.2933 15.2068L7.29325 11.2068C6.90225 10.8158 6.90225 10.1838 7.29325 9.79276C7.68425 9.40176 8.31625 9.40176 8.70725 9.79276L12.0122 13.0978L15.3053 9.91776C15.7043 9.53476 16.3352 9.54576 16.7192 9.94276C17.1032 10.3398 17.0922 10.9738 16.6952 11.3568L12.6953 15.2188C12.5002 15.4068 12.2502 15.4998 12.0002 15.4998Z" fill="white"/>
</mask>
<g mask="url(#mask0_900_6471)">
<rect width="24" height="24" fill="white"/>
</g>
</svg>
