<svg width="24" height="25" viewBox="0 0 24 25" fill="none" xmlns="http://www.w3.org/2000/svg">
<path fill-rule="evenodd" clip-rule="evenodd" d="M12 13.989C11.173 13.989 10.5 13.3197 10.5 12.4973C10.5 11.6748 11.173 11.0055 12 11.0055C12.827 11.0055 13.5 11.6748 13.5 12.4973C13.5 13.3197 12.827 13.989 12 13.989ZM12 9.01646C10.0701 9.01646 8.50005 10.5779 8.50005 12.4973C8.50005 14.4167 10.0701 15.9781 12 15.9781C13.93 15.9781 15.5 14.4167 15.5 12.4973C15.5 10.5779 13.93 9.01646 12 9.01646ZM12.2197 17.4675C7.91375 17.5669 5.10475 13.9041 4.17275 12.4929C5.19875 10.8967 7.78275 7.62872 11.7807 7.52728C16.0697 7.41887 18.8948 11.0906 19.8267 12.5018C18.8018 14.098 16.2168 17.366 12.2197 17.4675ZM21.8678 12.0026C21.2297 10.8967 17.7057 5.35327 11.7297 5.53924C6.20175 5.67847 2.98675 10.5218 2.13275 12.0026C1.95575 12.3089 1.95575 12.6858 2.13275 12.9921C2.76175 14.0831 6.16175 19.4585 12.0247 19.4585C12.1067 19.4585 12.1888 19.4575 12.2708 19.4555C17.7977 19.3153 21.0138 14.473 21.8678 12.9921C22.0438 12.6858 22.0438 12.3089 21.8678 12.0026Z" fill="white"/>
<mask id="mask0_184_5540" style="mask-type:alpha" maskUnits="userSpaceOnUse" x="2" y="5" width="20" height="15">
<path fill-rule="evenodd" clip-rule="evenodd" d="M12 13.989C11.173 13.989 10.5 13.3197 10.5 12.4973C10.5 11.6748 11.173 11.0055 12 11.0055C12.827 11.0055 13.5 11.6748 13.5 12.4973C13.5 13.3197 12.827 13.989 12 13.989ZM12 9.01646C10.0701 9.01646 8.50005 10.5779 8.50005 12.4973C8.50005 14.4167 10.0701 15.9781 12 15.9781C13.93 15.9781 15.5 14.4167 15.5 12.4973C15.5 10.5779 13.93 9.01646 12 9.01646ZM12.2197 17.4675C7.91375 17.5669 5.10475 13.9041 4.17275 12.4929C5.19875 10.8967 7.78275 7.62872 11.7807 7.52728C16.0697 7.41887 18.8948 11.0906 19.8267 12.5018C18.8018 14.098 16.2168 17.366 12.2197 17.4675ZM21.8678 12.0026C21.2297 10.8967 17.7057 5.35327 11.7297 5.53924C6.20175 5.67847 2.98675 10.5218 2.13275 12.0026C1.95575 12.3089 1.95575 12.6858 2.13275 12.9921C2.76175 14.0831 6.16175 19.4585 12.0247 19.4585C12.1067 19.4585 12.1888 19.4575 12.2708 19.4555C17.7977 19.3153 21.0138 14.473 21.8678 12.9921C22.0438 12.6858 22.0438 12.3089 21.8678 12.0026Z" fill="white"/>
</mask>
<g mask="url(#mask0_184_5540)">
<rect y="0.562988" width="24" height="23.8684" fill="white"/>
</g>
</svg>
