<svg width="227" height="151" viewBox="0 0 227 151" fill="none" xmlns="http://www.w3.org/2000/svg">
<path fill-rule="evenodd" clip-rule="evenodd" d="M227 0H0V150.652H227V0ZM1.36336 149.288V1.36336H225.637V149.288H1.36336ZM84.9343 30.4154C85.4329 28.8346 85.6821 27.0471 85.6821 25.0529V23.3748C85.6821 21.3806 85.4268 19.5992 84.9161 18.0306C84.4175 16.4498 83.694 15.1062 82.7455 13.9996C81.8092 12.8809 80.6845 12.0297 79.3712 11.4461C78.0701 10.8624 76.6109 10.5706 74.9937 10.5706C73.4251 10.5706 71.9841 10.8624 70.6709 11.4461C69.3698 12.0297 68.245 12.8809 67.2965 13.9996C66.3481 15.1062 65.6124 16.4498 65.0895 18.0306C64.5788 19.5992 64.3235 21.3806 64.3235 23.3748V25.0529C64.3235 27.0471 64.5849 28.8346 65.1078 30.4154C65.6306 31.9961 66.3663 33.3398 67.3148 34.4463C68.2754 35.5529 69.4062 36.398 70.7074 36.9816C72.0206 37.5653 73.4615 37.8572 75.0302 37.8572C76.6474 37.8572 78.1066 37.5653 79.4077 36.9816C80.7209 36.398 81.8457 35.5529 82.782 34.4463C83.7183 33.3398 84.4358 31.9961 84.9343 30.4154ZM82.1984 23.3384V25.0529C82.1984 26.6458 82.0403 28.0564 81.7241 29.2845C81.408 30.5005 80.9398 31.528 80.3197 32.367C79.7117 33.1939 78.9639 33.8201 78.0762 34.2457C77.1885 34.6713 76.1732 34.8841 75.0302 34.8841C73.9358 34.8841 72.9448 34.6713 72.0571 34.2457C71.1816 33.8201 70.4216 33.1939 69.7771 32.367C69.1448 31.528 68.6584 30.5005 68.3179 29.2845C67.9775 28.0564 67.8072 26.6458 67.8072 25.0529V23.3384C67.8072 21.7576 67.9775 20.3592 68.3179 19.1432C68.6584 17.9272 69.1387 16.9058 69.7589 16.0789C70.3912 15.2521 71.1451 14.6259 72.0206 14.2003C72.9083 13.7747 73.8993 13.5619 74.9937 13.5619C76.1245 13.5619 77.1338 13.7747 78.0215 14.2003C78.9213 14.6259 79.6813 15.2521 80.3014 16.0789C80.9216 16.9058 81.3897 17.9272 81.7059 19.1432C82.0342 20.3592 82.1984 21.7576 82.1984 23.3384ZM35.2859 10.9354V37.4924H31.7838V13.8172H18.6877V37.4924H15.1675V10.9354H35.2859ZM51.4645 27.0775H45.19V37.4924H41.6697V10.9354H51.4645C53.4708 10.9354 55.1671 11.2819 56.5533 11.975C57.9396 12.6681 58.9914 13.6287 59.7088 14.8569C60.4262 16.0729 60.785 17.4652 60.785 19.0338C60.785 20.7362 60.4262 22.1892 59.7088 23.3931C58.9914 24.5969 57.9396 25.515 56.5533 26.1473C55.1671 26.7674 53.4708 27.0775 51.4645 27.0775ZM45.19 13.8172V24.2139H51.4645C52.8385 24.2139 53.9511 23.995 54.8023 23.5572C55.6535 23.1195 56.2737 22.5115 56.6628 21.7333C57.0641 20.955 57.2647 20.0674 57.2647 19.0703C57.2647 18.1583 57.0641 17.301 56.6628 16.4985C56.2737 15.6959 55.6535 15.0514 54.8023 14.5651C53.9511 14.0665 52.8385 13.8172 51.4645 13.8172H45.19ZM94.6378 10.9354V22.627H97.3738L106.64 10.9354H110.999L100.864 23.7809L111.765 37.4924H107.46L97.85 25.5454H94.6378V37.4924H91.1176V10.9354H94.6378ZM118.149 10.9354H114.629V19.2344C114.629 21.2286 114.987 22.8276 115.705 24.0315C116.422 25.2353 117.45 26.1108 118.787 26.658C120.137 27.193 121.748 27.4605 123.621 27.4605C124.484 27.4605 125.268 27.4301 125.974 27.3693C126.691 27.3085 127.36 27.2234 127.98 27.114C128.612 27.0045 129.22 26.8708 129.804 26.7127C130.102 26.6337 130.4 26.5516 130.698 26.4665V37.4924H134.218V10.9354H130.698V23.5723C130.367 23.6618 130.032 23.748 129.695 23.8308C129.062 23.9889 128.418 24.1227 127.761 24.2321C127.105 24.3415 126.43 24.4267 125.737 24.4874C125.056 24.5482 124.35 24.5786 123.621 24.5786C122.405 24.5786 121.389 24.4206 120.575 24.1044C119.76 23.7883 119.152 23.2411 118.751 22.4628C118.349 21.6846 118.149 20.6085 118.149 19.2344V10.9354ZM151.509 10.9354H150.743H149.193H148.427L138.304 37.4924H141.897L144.421 30.543H155.528L158.057 37.4924H161.669L151.509 10.9354ZM154.479 27.6612H145.468L149.969 15.2697L154.479 27.6612ZM182.097 37.4924V34.6287H168.746V25.217H180.237V22.3534H168.746V13.8172H181.915V10.9354H168.746H168.034H165.225V37.4924H168.034H168.746H182.097ZM189.466 10.9354H190.98L199.68 32.5859L208.362 10.9354H209.876H211.791H212.886V37.4924H209.384V27.1322L209.721 16.0264L200.994 37.4924H198.331L189.62 15.9963L189.959 27.1322V37.4924H186.456V10.9354H187.569H189.466ZM24.8891 53.8553V72.2595H21.2405V53.8553H14.6028V50.9248H21.2405H24.8891H31.5855V53.8553H24.8891ZM34.3549 50.9248H38.0328V57.5332C38.0328 58.5394 38.1842 59.3307 38.4871 59.907C38.7899 60.4736 39.249 60.8741 39.8644 61.1086C40.4896 61.343 41.2662 61.4602 42.1943 61.4602C42.6436 61.4602 43.1174 61.4407 43.6156 61.4016C44.1138 61.3625 44.612 61.3088 45.1102 61.2404C45.6182 61.1623 46.1066 61.0744 46.5755 60.9767C46.7312 60.941 46.8826 60.9042 47.0297 60.8664V50.9248H50.7076V72.2595H47.0297V63.7743C46.892 63.8093 46.7504 63.8439 46.6048 63.878C46.1554 63.9854 45.6865 64.0782 45.1981 64.1564C44.7097 64.2248 44.2115 64.2785 43.7035 64.3176C43.1955 64.3566 42.6925 64.3762 42.1943 64.3762C40.5824 64.3762 39.1904 64.1466 38.0182 63.6875C36.8459 63.2186 35.9423 62.481 35.3074 61.4749C34.6724 60.4687 34.3549 59.1548 34.3549 57.5332V50.9248ZM58.8547 59.8924V50.9248H55.1914V72.2595H58.8547V63.0867H61.4329L67.9395 72.2595H72.35L64.42 61.1184L71.6906 50.9248H67.1922L60.9793 59.8924H58.8547ZM78.094 66.2664L87.5598 50.9248H91.2377V72.2595H87.5598V56.9032L78.094 72.2595H74.4307V50.9248H78.094V66.2664ZM106.858 59.8924V50.9248H103.194V72.2595H106.858V63.0867H109.436L115.943 72.2595H120.353L112.423 61.1184L119.694 50.9248H115.195L108.982 59.8924H106.858ZM126.141 62.7497H135.724V72.2595H139.387V50.9248H135.724V59.8337H126.141V50.9248H122.463V72.2595H126.141V62.7497ZM152.106 72.2595V53.8553H158.802V50.9248H152.106H148.457H141.82V53.8553H148.457V72.2595H152.106ZM165.352 50.9248V59.8924H167.477L173.69 50.9248H178.188L170.918 61.1184L178.848 72.2595H174.437L167.931 63.0867H165.352V72.2595H161.689V50.9248H165.352ZM189.735 72.2595V53.8553H196.431V50.9248H189.735H186.086H179.448V53.8553H186.086V72.2595H189.735ZM207.289 50.9248H206.41H204.813H203.948L195.918 72.2595H199.772L201.494 67.2628H209.753L211.48 72.2595H215.348L207.289 50.9248ZM208.746 64.3469H202.499L205.619 55.2961L208.746 64.3469ZM112.692 95.4039V96.5434C112.692 98.1103 112.487 99.5157 112.079 100.76C111.671 102.004 111.087 103.062 110.327 103.936C109.577 104.81 108.675 105.479 107.621 105.944C106.567 106.4 105.399 106.628 104.117 106.628C102.844 106.628 101.681 106.4 100.627 105.944C99.5824 105.479 98.6755 104.81 97.9063 103.936C97.1372 103.062 96.5389 102.004 96.1116 100.76C95.6938 99.5157 95.4849 98.1103 95.4849 96.5434V95.4039C95.4849 93.8371 95.6938 92.4364 96.1116 91.2019C96.5294 89.9579 97.1182 88.8991 97.8779 88.0255C98.647 87.1424 99.5539 86.4729 100.598 86.0171C101.653 85.5518 102.816 85.3192 104.088 85.3192C105.37 85.3192 106.538 85.5518 107.592 86.0171C108.646 86.4729 109.553 87.1424 110.313 88.0255C111.073 88.8991 111.657 89.9579 112.065 91.2019C112.483 92.4364 112.692 93.8371 112.692 95.4039ZM109.116 96.5434V95.3754C109.116 94.2169 109.002 93.1961 108.775 92.313C108.556 91.4203 108.229 90.6749 107.792 90.0766C107.364 89.4689 106.837 89.0131 106.211 88.7092C105.584 88.3959 104.876 88.2392 104.088 88.2392C103.3 88.2392 102.597 88.3959 101.98 88.7092C101.363 89.0131 100.836 89.4689 100.399 90.0766C99.9717 90.6749 99.6441 91.4203 99.4162 92.313C99.1883 93.1961 99.0744 94.2169 99.0744 95.3754V96.5434C99.0744 97.7019 99.1883 98.7275 99.4162 99.6201C99.6441 100.513 99.9765 101.268 100.413 101.885C100.86 102.493 101.391 102.953 102.009 103.267C102.626 103.57 103.329 103.722 104.117 103.722C104.914 103.722 105.622 103.57 106.239 103.267C106.856 102.953 107.379 102.493 107.806 101.885C108.233 101.268 108.556 100.513 108.775 99.6201C109.002 98.7275 109.116 97.7019 109.116 96.5434ZM18.9661 96.9707H19.1513H23.1681C23.9943 96.9707 24.6637 97.1084 25.1765 97.3838C25.6893 97.6497 26.0644 98.0343 26.3018 98.5376C26.5392 99.0314 26.6579 99.6154 26.6579 100.29C26.6579 100.935 26.5202 101.5 26.2448 101.985C25.9789 102.459 25.5754 102.835 25.0341 103.11C24.4928 103.376 23.8186 103.509 23.0114 103.509H18.9661V96.9707ZM18.9661 94.3641V88.4528H22.4274C23.2726 88.4528 23.9658 88.5525 24.5071 88.752C25.0578 88.9514 25.4662 89.2695 25.732 89.7063C25.9979 90.1431 26.1309 90.7081 26.1309 91.4013C26.1309 92.0281 25.9884 92.5646 25.7036 93.0109C25.4187 93.4477 25.0009 93.7848 24.4501 94.0222C23.9088 94.2501 23.2488 94.3641 22.4702 94.3641H19.1798H18.9661ZM26.718 95.549C26.9167 95.467 27.1056 95.3759 27.2846 95.2757C28.0823 94.8294 28.6853 94.2549 29.0936 93.5522C29.502 92.84 29.7061 92.0566 29.7061 91.2019C29.7061 90.2333 29.5399 89.3977 29.2076 88.695C28.8847 87.9923 28.4052 87.413 27.7689 86.9572C27.1422 86.4919 26.3778 86.1501 25.4757 85.9316C24.583 85.7132 23.567 85.604 22.4274 85.604H15.3909V106.343H16.7583H18.9661H23.0114C24.5213 106.343 25.8128 106.115 26.8858 105.66C27.9589 105.194 28.7803 104.515 29.35 103.623C29.9293 102.73 30.2189 101.624 30.2189 100.304C30.2189 99.4492 30.0385 98.6515 29.6776 97.9108C29.3168 97.1702 28.766 96.5672 28.0253 96.1019C27.6448 95.8597 27.209 95.6754 26.718 95.549ZM42.1554 85.604H43.01L50.8442 106.343H47.0838L45.4057 101.486H37.3771L35.7028 106.343H31.9567L39.7624 85.604H40.6028H42.1554ZM38.3541 98.6515H44.4264L41.3868 89.8533L38.3541 98.6515ZM53.1802 85.604H56.7697V103.509H63.1795V85.604H66.7405V103.509H73.0933V85.604H76.6543V106.343H53.1802V85.604ZM94.1459 88.4528V85.604H80.956V106.343H84.517V88.4528H94.1459ZM136.678 88.4528V85.604H127.064H123.474V106.343H127.035H131.166C132.353 106.343 133.407 106.187 134.328 105.873C135.259 105.56 136.047 105.118 136.693 104.549C137.338 103.969 137.828 103.286 138.16 102.497C138.492 101.709 138.658 100.84 138.658 99.8908C138.658 98.6278 138.364 97.5215 137.775 96.5719C137.187 95.6223 136.332 94.8864 135.211 94.3641C134.091 93.8323 132.742 93.5664 131.166 93.5664H127.064V88.4528H136.678ZM127.064 96.401V103.509H131.166C132.068 103.509 132.809 103.343 133.388 103.01C133.967 102.668 134.395 102.222 134.67 101.671C134.955 101.12 135.097 100.517 135.097 99.8623C135.097 99.226 134.955 98.6468 134.67 98.1245C134.395 97.6022 133.967 97.1844 133.388 96.871C132.809 96.5577 132.068 96.401 131.166 96.401H127.064ZM146.108 94.3641V95.1618V96.401V97.1559H148.586C149.242 97.1559 149.821 97.2224 150.324 97.3553C150.828 97.4883 151.25 97.6924 151.592 97.9678C151.934 98.2337 152.19 98.5851 152.361 99.0219C152.542 99.4492 152.632 99.9572 152.632 100.546C152.632 101.163 152.461 101.719 152.119 102.213C151.787 102.706 151.302 103.096 150.666 103.381C150.039 103.665 149.275 103.808 148.373 103.808C147.585 103.808 146.891 103.665 146.293 103.381C145.704 103.086 145.239 102.697 144.897 102.213C144.565 101.719 144.399 101.177 144.399 100.589H140.809C140.809 101.652 141.028 102.564 141.464 103.324C141.901 104.083 142.481 104.71 143.202 105.204C143.933 105.688 144.745 106.049 145.638 106.286C146.54 106.514 147.452 106.628 148.373 106.628C149.512 106.628 150.557 106.495 151.507 106.229C152.466 105.963 153.296 105.569 153.999 105.047C154.702 104.525 155.243 103.889 155.623 103.138C156.012 102.379 156.207 101.515 156.207 100.546C156.207 99.6818 156.046 98.9174 155.723 98.2527C155.4 97.5785 154.93 97.0135 154.313 96.5577C153.832 96.2031 153.269 95.9146 152.622 95.6922C153.136 95.4646 153.595 95.1928 153.999 94.8769C154.607 94.4021 155.072 93.8513 155.395 93.2246C155.727 92.5978 155.894 91.9284 155.894 91.2162C155.894 90.2476 155.718 89.3977 155.367 88.6665C155.015 87.9258 154.507 87.3086 153.843 86.8148C153.178 86.321 152.385 85.9506 151.464 85.7037C150.543 85.4473 149.512 85.3192 148.373 85.3192C147.395 85.3192 146.464 85.4568 145.581 85.7322C144.707 85.9981 143.933 86.3827 143.259 86.886C142.595 87.3893 142.067 88.0018 141.678 88.7235C141.298 89.4357 141.108 90.2428 141.108 91.1449H144.684C144.684 90.5372 144.845 90.0102 145.168 89.5639C145.5 89.1176 145.947 88.771 146.507 88.524C147.067 88.2772 147.689 88.1537 148.373 88.1537C149.284 88.1537 150.03 88.2962 150.609 88.581C151.188 88.8564 151.616 89.2268 151.891 89.6921C152.176 90.1574 152.318 90.6701 152.318 91.2304C152.318 91.8571 152.19 92.4079 151.934 92.8827C151.687 93.348 151.288 93.7136 150.737 93.9795C150.187 94.2359 149.47 94.3641 148.586 94.3641H146.108ZM172.488 97.0989H163.172V106.343H159.597V85.604H163.172V94.2644H172.488V85.604H176.049V106.343H172.488V97.0989ZM192.558 99.5916H196.119C196.005 100.95 195.625 102.16 194.979 103.224C194.333 104.278 193.427 105.109 192.259 105.717C191.091 106.324 189.671 106.628 188 106.628C186.718 106.628 185.564 106.4 184.538 105.944C183.513 105.479 182.634 104.824 181.903 103.979C181.172 103.124 180.612 102.094 180.222 100.888C179.843 99.6818 179.653 98.3334 179.653 96.8425V95.119C179.653 93.6282 179.847 92.2797 180.237 91.0737C180.635 89.8677 181.205 88.8374 181.946 87.9828C182.687 87.1186 183.574 86.4587 184.61 86.0029C185.654 85.5471 186.827 85.3192 188.128 85.3192C189.78 85.3192 191.176 85.623 192.316 86.2308C193.455 86.8385 194.338 87.6789 194.965 88.752C195.601 89.825 195.99 91.0547 196.133 92.4411H192.572C192.477 91.5485 192.268 90.7841 191.945 90.1479C191.632 89.5116 191.166 89.0273 190.549 88.695C189.932 88.3531 189.125 88.1822 188.128 88.1822C187.311 88.1822 186.599 88.3341 185.991 88.638C185.383 88.9419 184.875 89.3882 184.467 89.9769C184.059 90.5657 183.75 91.2921 183.541 92.1563C183.342 93.0109 183.242 93.989 183.242 95.0905V96.8425C183.242 97.8871 183.332 98.8367 183.513 99.6913C183.703 100.536 183.988 101.263 184.367 101.871C184.757 102.478 185.251 102.948 185.849 103.281C186.447 103.613 187.164 103.779 188 103.779C189.016 103.779 189.837 103.618 190.464 103.295C191.1 102.972 191.58 102.502 191.902 101.885C192.235 101.258 192.453 100.494 192.558 99.5916ZM207.699 85.604H208.554L216.388 106.343H212.627L210.949 101.486H202.921L201.247 106.343H197.5L205.306 85.604H206.146H207.699ZM203.898 98.6515H209.97L206.93 89.8533L203.898 98.6515ZM76.6242 134.532L85.2789 120.505H88.6416V140.011H85.2789V125.971L76.6242 140.011H73.2749V120.505H76.6242V134.532ZM82.9612 115.508H85.3593C85.3593 116.249 85.1807 116.905 84.8234 117.477C84.4751 118.04 83.9749 118.482 83.3229 118.803C82.6798 119.125 81.9117 119.286 81.0186 119.286C79.6699 119.286 78.6026 118.937 77.8166 118.241C77.0396 117.535 76.651 116.624 76.651 115.508H79.0492C79.0492 116.008 79.1965 116.45 79.4913 116.834C79.7949 117.209 80.304 117.397 81.0186 117.397C81.7242 117.397 82.2243 117.209 82.5191 116.834C82.8138 116.45 82.9612 116.008 82.9612 115.508ZM30.8188 129.722V130.794C30.8188 132.268 30.6268 133.59 30.2427 134.76C29.8586 135.93 29.3094 136.925 28.5948 137.747C27.8892 138.569 27.0407 139.199 26.0493 139.636C25.0579 140.065 23.9594 140.279 22.7536 140.279C21.5568 140.279 20.4627 140.065 19.4713 139.636C18.4888 139.199 17.6358 138.569 16.9124 137.747C16.1889 136.925 15.6262 135.93 15.2243 134.76C14.8313 133.59 14.6348 132.268 14.6348 130.794V129.722C14.6348 128.248 14.8313 126.931 15.2243 125.77C15.6173 124.6 16.171 123.604 16.8856 122.782C17.609 121.952 18.462 121.322 19.4445 120.893C20.4359 120.456 21.53 120.237 22.7268 120.237C23.9326 120.237 25.0311 120.456 26.0225 120.893C27.0139 121.322 27.8669 121.952 28.5814 122.782C29.296 123.604 29.8452 124.6 30.2293 125.77C30.6223 126.931 30.8188 128.248 30.8188 129.722ZM27.4561 130.794V129.695C27.4561 128.606 27.3489 127.646 27.1345 126.815C26.9291 125.975 26.621 125.274 26.2101 124.712C25.8082 124.14 25.3125 123.711 24.723 123.425C24.1335 123.131 23.4681 122.983 22.7268 122.983C21.9855 122.983 21.3245 123.131 20.744 123.425C20.1634 123.711 19.6677 124.14 19.2569 124.712C18.855 125.274 18.5468 125.975 18.3325 126.815C18.1181 127.646 18.0109 128.606 18.0109 129.695V130.794C18.0109 131.884 18.1181 132.848 18.3325 133.688C18.5468 134.527 18.8594 135.237 19.2703 135.818C19.6901 136.39 20.1902 136.823 20.7708 137.117C21.3513 137.403 22.0123 137.546 22.7536 137.546C23.5038 137.546 24.1692 137.403 24.7498 137.117C25.3303 136.823 25.8216 136.39 26.2235 135.818C26.6254 135.237 26.9291 134.527 27.1345 133.688C27.3489 132.848 27.4561 131.884 27.4561 130.794ZM37.5442 131.316H46.3061V140.011H49.6554V120.505H46.3061V128.65H37.5442V120.505H34.1815V140.011H37.5442V131.316ZM59.8818 123.184H65.9064V140.011H69.2691V120.505H66.6968H65.9064H60.0116H57.3455H56.6756L56.3273 129.334C56.2826 130.504 56.2112 131.526 56.1129 132.402C56.0236 133.277 55.8986 134.018 55.7378 134.626C55.577 135.233 55.3761 135.729 55.1349 136.113C54.8938 136.488 54.599 136.774 54.2507 136.97C53.9113 137.158 53.5049 137.269 53.0316 137.305L52.5091 137.345V140.011H53.3665C54.2328 140.011 54.9876 139.9 55.6306 139.676C56.2826 139.444 56.8409 139.087 57.3053 138.605C57.7697 138.113 58.1538 137.484 58.4575 136.716C58.7611 135.947 59.0023 135.023 59.1809 133.942C59.3596 132.862 59.4801 131.611 59.5427 130.191L59.8818 123.184ZM104.799 131.316H96.037V140.011H92.6742V120.505H96.037V128.65H104.799V120.505H108.148V140.011H104.799V131.316ZM134.541 129.722V130.794C134.541 132.268 134.349 133.59 133.965 134.76C133.581 135.93 133.031 136.925 132.317 137.747C131.611 138.569 130.763 139.199 129.771 139.636C128.78 140.065 127.681 140.279 126.476 140.279C125.279 140.279 124.185 140.065 123.193 139.636C122.211 139.199 121.358 138.569 120.634 137.747C119.911 136.925 119.348 135.93 118.946 134.76C118.553 133.59 118.357 132.268 118.357 130.794V129.722C118.357 128.248 118.553 126.931 118.946 125.77C119.339 124.6 119.893 123.604 120.608 122.782C121.331 121.952 122.184 121.322 123.167 120.893C124.158 120.456 125.252 120.237 126.449 120.237C127.655 120.237 128.753 120.456 129.745 120.893C130.736 121.322 131.589 121.952 132.304 122.782C133.018 123.604 133.567 124.6 133.951 125.77C134.344 126.931 134.541 128.248 134.541 129.722ZM131.178 130.794V129.695C131.178 128.606 131.071 127.646 130.857 126.815C130.651 125.975 130.343 125.274 129.932 124.712C129.53 124.14 129.035 123.711 128.445 123.425C127.856 123.131 127.19 122.983 126.449 122.983C125.708 122.983 125.047 123.131 124.466 123.425C123.886 123.711 123.39 124.14 122.979 124.712C122.577 125.274 122.269 125.975 122.055 126.815C121.84 127.646 121.733 128.606 121.733 129.695V130.794C121.733 131.884 121.84 132.848 122.055 133.688C122.269 134.527 122.582 135.237 122.992 135.818C123.412 136.39 123.912 136.823 124.493 137.117C125.073 137.403 125.734 137.546 126.476 137.546C127.226 137.546 127.891 137.403 128.472 137.117C129.052 136.823 129.544 136.39 129.946 135.818C130.348 135.237 130.651 134.527 130.857 133.688C131.071 132.848 131.178 131.884 131.178 130.794ZM145.286 122.34H144.977C143.834 122.34 142.776 122.532 141.802 122.916C140.829 123.3 139.976 123.85 139.243 124.564C138.52 125.27 137.957 126.114 137.555 127.096C137.162 128.07 136.966 129.155 136.966 130.352C136.966 131.531 137.162 132.607 137.555 133.581C137.957 134.545 138.52 135.376 139.243 136.072C139.976 136.769 140.829 137.305 141.802 137.68C142.776 138.055 143.834 138.243 144.977 138.243H145.286V140.815H148.514V138.243H148.809C149.961 138.243 151.02 138.055 151.984 137.68C152.958 137.305 153.806 136.769 154.53 136.072C155.253 135.367 155.816 134.527 156.218 133.554C156.62 132.58 156.821 131.504 156.821 130.325C156.821 129.128 156.62 128.043 156.218 127.069C155.816 126.087 155.253 125.247 154.53 124.551C153.806 123.845 152.958 123.3 151.984 122.916C151.02 122.532 149.961 122.34 148.809 122.34H148.514V119.701H145.286V122.34ZM145.286 125.02H144.977C143.977 125.02 143.115 125.234 142.392 125.663C141.668 126.083 141.11 126.69 140.717 127.485C140.333 128.28 140.141 129.235 140.141 130.352C140.141 131.174 140.253 131.906 140.476 132.549C140.699 133.192 141.021 133.737 141.441 134.183C141.86 134.63 142.369 134.974 142.968 135.215C143.566 135.456 144.236 135.577 144.977 135.577H145.286V125.02ZM148.514 135.577H148.836C149.827 135.577 150.68 135.367 151.395 134.947C152.109 134.518 152.659 133.911 153.043 133.125C153.436 132.339 153.632 131.406 153.632 130.325C153.632 129.494 153.52 128.753 153.297 128.101C153.083 127.44 152.766 126.882 152.346 126.426C151.935 125.971 151.435 125.623 150.845 125.381C150.256 125.14 149.586 125.02 148.836 125.02H148.514V135.577ZM171.772 123.184H165.748L165.408 130.191C165.346 131.611 165.225 132.862 165.047 133.942C164.868 135.023 164.627 135.947 164.323 136.716C164.019 137.484 163.635 138.113 163.171 138.605C162.707 139.087 162.148 139.444 161.496 139.676C160.853 139.9 160.099 140.011 159.232 140.011H158.375V137.345L158.897 137.305C159.371 137.269 159.777 137.158 160.116 136.97C160.465 136.774 160.759 136.488 161.001 136.113C161.242 135.729 161.443 135.233 161.603 134.626C161.764 134.018 161.889 133.277 161.979 132.402C162.077 131.526 162.148 130.504 162.193 129.334L162.541 120.505H163.211H165.877H171.772H172.562H175.135V140.011H171.772V123.184ZM191.145 120.505L182.49 134.532V120.505H179.141V140.011H182.49L191.145 125.971V140.011H194.507V120.505H191.145ZM191.225 115.508H188.827C188.827 116.008 188.679 116.45 188.385 116.834C188.09 117.209 187.59 117.397 186.884 117.397C186.17 117.397 185.661 117.209 185.357 116.834C185.062 116.45 184.915 116.008 184.915 115.508H182.517C182.517 116.624 182.905 117.535 183.682 118.241C184.468 118.937 185.536 119.286 186.884 119.286C187.777 119.286 188.545 119.125 189.189 118.803C189.841 118.482 190.341 118.04 190.689 117.477C191.046 116.905 191.225 116.249 191.225 115.508ZM201.903 131.316H210.664V140.011H214.014V120.505H210.664V128.65H201.903V120.505H198.54V140.011H201.903V131.316Z" fill="white"/>
</svg>
