<svg width="32" height="32" viewBox="0 0 32 32" fill="none" xmlns="http://www.w3.org/2000/svg">
<g id="Icon/24/Outline/menu">
<path id="Mask" fill-rule="evenodd" clip-rule="evenodd" d="M5.264 8H26.7347C27.4307 8 28 8.56933 28 9.26533V9.40133C28 10.0973 27.4307 10.6667 26.7347 10.6667H5.264C4.568 10.6667 4 10.0973 4 9.40133V9.26533C4 8.56933 4.568 8 5.264 8ZM26.7347 14.6667H5.264C4.568 14.6667 4 15.236 4 15.932V16.068C4 16.764 4.568 17.3333 5.264 17.3333H26.7347C27.4307 17.3333 28 16.764 28 16.068V15.932C28 15.236 27.4307 14.6667 26.7347 14.6667ZM26.7347 21.3333H5.264C4.568 21.3333 4 21.9027 4 22.5987V22.7347C4 23.4307 4.568 24 5.264 24H26.7347C27.4307 24 28 23.4307 28 22.7347V22.5987C28 21.9027 27.4307 21.3333 26.7347 21.3333Z" fill="black"/>
<mask id="mask0_156_10624" style="mask-type:alpha" maskUnits="userSpaceOnUse" x="4" y="8" width="24" height="16">
<path id="Mask_2" fill-rule="evenodd" clip-rule="evenodd" d="M5.264 8H26.7347C27.4307 8 28 8.56933 28 9.26533V9.40133C28 10.0973 27.4307 10.6667 26.7347 10.6667H5.264C4.568 10.6667 4 10.0973 4 9.40133V9.26533C4 8.56933 4.568 8 5.264 8ZM26.7347 14.6667H5.264C4.568 14.6667 4 15.236 4 15.932V16.068C4 16.764 4.568 17.3333 5.264 17.3333H26.7347C27.4307 17.3333 28 16.764 28 16.068V15.932C28 15.236 27.4307 14.6667 26.7347 14.6667ZM26.7347 21.3333H5.264C4.568 21.3333 4 21.9027 4 22.5987V22.7347C4 23.4307 4.568 24 5.264 24H26.7347C27.4307 24 28 23.4307 28 22.7347V22.5987C28 21.9027 27.4307 21.3333 26.7347 21.3333Z" fill="white"/>
</mask>
<g mask="url(#mask0_156_10624)">
<g id="&#240;&#159;&#142;&#168; Color">
<rect id="Base" width="32" height="32" fill="black"/>
</g>
</g>
</g>
</svg>
