<svg width="28" height="28" viewBox="0 0 28 28" fill="none" xmlns="http://www.w3.org/2000/svg">
<path d="M27.5593 10.2264C27.5593 5.0664 23.386 0.893066 18.226 0.893066C13.066 0.893066 8.89268 5.0664 8.89268 10.2264C8.89268 14.8531 12.2527 18.6797 16.666 19.4131V24.6664H5.99935V20.6664H7.33268V15.3331C7.33268 14.5997 6.73268 13.9997 5.99935 13.9997H1.99935C1.26602 13.9997 0.666016 14.5997 0.666016 15.3331V20.6664H1.99935V27.3331H23.3327V24.6664H19.3327V19.4931C23.9594 18.9464 27.5593 15.0131 27.5593 10.2264ZM3.99935 12.6664C5.10602 12.6664 5.99935 11.7731 5.99935 10.6664C5.99935 9.55973 5.10602 8.6664 3.99935 8.6664C2.89268 8.6664 1.99935 9.55973 1.99935 10.6664C1.99935 11.7731 2.89268 12.6664 3.99935 12.6664Z" fill="white"/>
</svg>
