<svg width="32" height="32" viewBox="0 0 32 32" fill="none" xmlns="http://www.w3.org/2000/svg">
<g clip-path="url(#clip0_184_596)">
<path d="M4 28L6.2 22.9333C4.51688 20.544 3.76356 17.6227 4.08139 14.7174C4.39923 11.8122 5.76638 9.12281 7.92628 7.15399C10.0862 5.18516 12.8903 4.07224 15.8125 4.02409C18.7347 3.97594 21.574 4.99586 23.7976 6.89246C26.0212 8.78905 27.4762 11.4319 27.8896 14.3251C28.303 17.2183 27.6463 20.1629 26.0428 22.6063C24.4393 25.0497 21.9993 26.824 19.1805 27.5961C16.3618 28.3682 13.3582 28.0851 10.7333 26.8L4 28" stroke="white" stroke-width="2" stroke-linecap="round" stroke-linejoin="round"/>
<path d="M12 13.3333C12 13.5101 12.0702 13.6796 12.1953 13.8047C12.3203 13.9297 12.4899 13.9999 12.6667 13.9999C12.8435 13.9999 13.013 13.9297 13.1381 13.8047C13.2631 13.6796 13.3333 13.5101 13.3333 13.3333V11.9999C13.3333 11.8231 13.2631 11.6535 13.1381 11.5285C13.013 11.4035 12.8435 11.3333 12.6667 11.3333C12.4899 11.3333 12.3203 11.4035 12.1953 11.5285C12.0702 11.6535 12 11.8231 12 11.9999V13.3333ZM12 13.3333C12 15.1014 12.7024 16.7971 13.9526 18.0473C15.2029 19.2975 16.8986 19.9999 18.6667 19.9999H20C20.1768 19.9999 20.3464 19.9297 20.4714 19.8047C20.5964 19.6796 20.6667 19.5101 20.6667 19.3333C20.6667 19.1564 20.5964 18.9869 20.4714 18.8618C20.3464 18.7368 20.1768 18.6666 20 18.6666H18.6667C18.4899 18.6666 18.3203 18.7368 18.1953 18.8618C18.0702 18.9869 18 19.1564 18 19.3333C18 19.5101 18.0702 19.6796 18.1953 19.8047C18.3203 19.9297 18.4899 19.9999 18.6667 19.9999" stroke="white" stroke-width="2" stroke-linecap="round" stroke-linejoin="round"/>
</g>
<defs>
<clipPath id="clip0_184_596">
<rect width="32" height="32" fill="white"/>
</clipPath>
</defs>
</svg>
