<svg width="28" height="28" viewBox="0 0 28 28" fill="none" xmlns="http://www.w3.org/2000/svg">
<path d="M22.0007 24.6665H24.666V27.3332H13.9993C6.63535 27.3332 0.666016 21.3638 0.666016 13.9998C0.666016 6.63584 6.63535 0.666504 13.9993 0.666504C21.3633 0.666504 27.3327 6.63584 27.3327 13.9998C27.3344 16.0699 26.8533 18.1119 25.9278 19.9635C25.0022 21.8152 23.6575 23.4255 22.0007 24.6665ZM13.9993 11.3332C14.7066 11.3332 15.3849 11.0522 15.885 10.5521C16.3851 10.052 16.666 9.37375 16.666 8.6665C16.666 7.95926 16.3851 7.28098 15.885 6.78089C15.3849 6.28079 14.7066 5.99984 13.9993 5.99984C13.2921 5.99984 12.6138 6.28079 12.1137 6.78089C11.6136 7.28098 11.3327 7.95926 11.3327 8.6665C11.3327 9.37375 11.6136 10.052 12.1137 10.5521C12.6138 11.0522 13.2921 11.3332 13.9993 11.3332ZM8.66602 16.6665C9.37326 16.6665 10.0515 16.3856 10.5516 15.8855C11.0517 15.3854 11.3327 14.7071 11.3327 13.9998C11.3327 13.2926 11.0517 12.6143 10.5516 12.1142C10.0515 11.6141 9.37326 11.3332 8.66602 11.3332C7.95877 11.3332 7.28049 11.6141 6.7804 12.1142C6.2803 12.6143 5.99935 13.2926 5.99935 13.9998C5.99935 14.7071 6.2803 15.3854 6.7804 15.8855C7.28049 16.3856 7.95877 16.6665 8.66602 16.6665ZM19.3327 16.6665C20.0399 16.6665 20.7182 16.3856 21.2183 15.8855C21.7184 15.3854 21.9993 14.7071 21.9993 13.9998C21.9993 13.2926 21.7184 12.6143 21.2183 12.1142C20.7182 11.6141 20.0399 11.3332 19.3327 11.3332C18.6254 11.3332 17.9472 11.6141 17.4471 12.1142C16.947 12.6143 16.666 13.2926 16.666 13.9998C16.666 14.7071 16.947 15.3854 17.4471 15.8855C17.9472 16.3856 18.6254 16.6665 19.3327 16.6665ZM13.9993 21.9998C14.7066 21.9998 15.3849 21.7189 15.885 21.2188C16.3851 20.7187 16.666 20.0404 16.666 19.3332C16.666 18.6259 16.3851 17.9476 15.885 17.4476C15.3849 16.9475 14.7066 16.6665 13.9993 16.6665C13.2921 16.6665 12.6138 16.9475 12.1137 17.4476C11.6136 17.9476 11.3327 18.6259 11.3327 19.3332C11.3327 20.0404 11.6136 20.7187 12.1137 21.2188C12.6138 21.7189 13.2921 21.9998 13.9993 21.9998Z" fill="white"/>
</svg>
