<svg width="29" height="28" viewBox="0 0 29 28" fill="none" xmlns="http://www.w3.org/2000/svg">
<path d="M9.66732 20H23.3167L25.6673 21.8467V8H27.0007C27.3543 8 27.6934 8.14048 27.9435 8.39052C28.1935 8.64057 28.334 8.97971 28.334 9.33333V27.3333L22.394 22.6667H11.0007C10.647 22.6667 10.3079 22.5262 10.0578 22.2761C9.80779 22.0261 9.66732 21.687 9.66732 21.3333V20ZM6.27398 17.3333L0.333984 22V1.33333C0.333984 0.979711 0.47446 0.640573 0.724509 0.390524C0.974557 0.140476 1.3137 0 1.66732 0H21.6673C22.0209 0 22.3601 0.140476 22.6101 0.390524C22.8602 0.640573 23.0007 0.979711 23.0007 1.33333V17.3333H6.27398Z" fill="white"/>
</svg>
