<svg width="28" height="24" viewBox="0 0 28 24" fill="none" xmlns="http://www.w3.org/2000/svg">
<path d="M0.666016 1.324C0.668456 0.973838 0.808549 0.63869 1.05603 0.390957C1.30352 0.143224 1.63852 0.00279287 1.98868 0H26.01C26.7407 0 27.3327 0.593333 27.3327 1.324V22.676C27.3302 23.0262 27.1901 23.3613 26.9427 23.609C26.6952 23.8568 26.3602 23.9972 26.01 24H1.98868C1.63777 23.9996 1.30134 23.86 1.05333 23.6117C0.805325 23.3635 0.666015 23.0269 0.666016 22.676V1.324ZM3.33268 2.66667V5.33333H5.99935V2.66667H3.33268ZM21.9993 2.66667V5.33333H24.666V2.66667H21.9993ZM3.33268 8V10.6667H5.99935V8H3.33268ZM21.9993 8V10.6667H24.666V8H21.9993ZM3.33268 13.3333V16H5.99935V13.3333H3.33268ZM21.9993 13.3333V16H24.666V13.3333H21.9993ZM3.33268 18.6667V21.3333H5.99935V18.6667H3.33268ZM21.9993 18.6667V21.3333H24.666V18.6667H21.9993Z" fill="white"/>
</svg>
