<svg width="152" height="151" viewBox="0 0 152 151" fill="none" xmlns="http://www.w3.org/2000/svg">
<path d="M125.135 31.2401C124.231 31.7708 123.069 31.4686 122.538 30.5652C122.007 29.6619 122.31 28.4993 123.213 27.9687C124.116 27.438 125.279 27.7401 125.809 28.6435C126.34 29.5469 126.038 30.7094 125.135 31.2401Z" fill="#979797"/>
<path d="M121.664 124.585C120.761 125.115 119.598 124.813 119.067 123.91C118.537 123.007 118.839 121.844 119.742 121.313C120.646 120.783 121.808 121.085 122.339 121.988C122.869 122.892 122.567 124.054 121.664 124.585Z" fill="#979797"/>
<path d="M26.8778 118.66C25.9744 119.191 24.8119 118.889 24.2812 117.985C23.7505 117.082 24.0527 115.919 24.9561 115.389C25.8595 114.858 27.022 115.16 27.5527 116.063C28.0833 116.967 27.7812 118.129 26.8778 118.66Z" fill="#979797"/>
<path d="M101.731 122.359C76.3972 137.241 43.7962 128.768 28.9147 103.434C14.0331 78.1003 22.5063 45.4993 47.8401 30.6178C73.1739 15.7362 105.775 24.2094 120.656 49.5432C135.538 74.877 127.065 107.478 101.731 122.359Z" fill="#AEB99C"/>
<path d="M33.4256 26.8085C32.5223 27.3391 31.3597 27.037 30.8291 26.1336C30.2984 25.2302 30.6005 24.0677 31.5039 23.537C32.4073 23.0064 33.5698 23.3085 34.1005 24.2119C34.6312 25.1153 34.329 26.2778 33.4256 26.8085Z" fill="#979797"/>
<path d="M106.508 132.613L105.822 140.919L103.859 141.877L99.2103 132.35L101.173 131.393L104.315 137.831L105.001 129.525L106.964 128.567L111.612 138.094L109.649 139.051L106.508 132.613Z" fill="#979797"/>
<path d="M90.4317 136.89L89.9395 135.259L97.251 133.053L97.7432 134.684L90.4317 136.89ZM97.1228 134.871L95.8798 130.752L97.8454 130.159L99.1999 134.244L97.1228 134.871ZM88.9262 137.344L87.8623 133.163L89.779 132.585L91.0241 136.711L88.9262 137.344ZM94.1519 145.06L93.6576 143.422L98.5436 141.948L99.0378 143.586L94.1519 145.06ZM92.6603 145.51L89.598 135.362L91.682 134.733L94.7443 144.882L92.6603 145.51ZM99.2957 143.508L97.2047 144.139L96.2293 139.924C96.065 139.228 95.9571 138.602 95.9055 138.044C95.8507 137.493 95.8381 136.998 95.8676 136.558C95.8924 136.119 95.9483 135.725 96.0351 135.374C96.1234 135.028 96.2321 134.716 96.3614 134.439C96.492 134.166 96.632 133.916 96.7813 133.689C96.9321 133.466 97.0817 133.256 97.2301 133.059L98.4289 132.697L98.9211 134.328L98.4541 134.469C98.353 134.621 98.2576 134.818 98.1678 135.058C98.0733 135.299 98.0085 135.605 97.9733 135.976C97.9348 136.352 97.9416 136.811 97.9936 137.353C98.041 137.897 98.1499 138.543 98.3203 139.293L99.2957 143.508Z" fill="#979797"/>
<path d="M81.8437 138.234L81.5897 136.55L87.1689 135.708L87.4229 137.393L81.8437 138.234ZM88.044 146.296L86.4634 135.815L88.6231 135.489L90.2037 145.971L88.044 146.296ZM83.2536 142.653L83.0061 141.011L87.8582 140.28L88.1057 141.921L83.2536 142.653ZM83.1775 147.03L82.9223 145.339L88.4944 144.498L88.7495 146.19L83.1775 147.03Z" fill="#979797"/>
<path d="M76.4925 145.443L79.3325 136.642L81.6549 136.63L77.7682 147.25L76.2903 147.257L76.4925 145.443ZM74.0542 136.668L76.9876 145.441L77.2294 147.252L75.7369 147.26L71.7245 136.679L74.0542 136.668ZM74.2046 140.613L74.1962 138.902L79.7948 138.875L79.8032 140.585L74.2046 140.613Z" fill="#979797"/>
<path d="M62.2734 145.933L62.5395 144.243L67.7464 145.062L67.4804 146.752L62.2734 145.933ZM60.7344 145.691L62.3825 135.219L64.5401 135.559L62.8919 146.03L60.7344 145.691ZM67.7536 146.795L65.6033 146.457L66.6968 141.242C66.859 140.461 67.0408 139.79 67.2424 139.227C67.4392 138.664 67.6608 138.192 67.9071 137.813C68.1527 137.439 68.4293 137.149 68.7371 136.942C69.0393 136.739 69.3792 136.608 69.7569 136.55C70.1339 136.496 70.5525 136.505 71.0128 136.578L71.545 136.661L71.2801 138.344L71.0034 138.323C70.7647 138.31 70.5487 138.34 70.3555 138.413C70.1622 138.485 69.9874 138.613 69.8311 138.794C69.6699 138.975 69.5241 139.215 69.3935 139.514C69.2574 139.817 69.1295 140.192 69.0099 140.64C68.8854 141.087 68.7657 141.614 68.6507 142.22L67.7536 146.795Z" fill="#979797"/>
<path d="M57.8133 140.877L55.4551 140.125C54.6597 139.871 54.0174 139.521 53.5281 139.074C53.0388 138.628 52.7152 138.117 52.5573 137.542C52.3995 136.967 52.4216 136.362 52.6236 135.729C52.7771 135.248 53.005 134.837 53.3076 134.495C53.6087 134.158 53.9745 133.898 54.405 133.714C54.8293 133.534 55.3024 133.44 55.8242 133.433C56.346 133.427 56.9052 133.518 57.5017 133.709L61.2194 134.895L57.9979 144.993L55.9102 144.327L58.6139 135.852L56.984 135.332C56.5863 135.205 56.2344 135.174 55.9282 135.239C55.6221 135.305 55.3652 135.439 55.1575 135.643C54.9438 135.85 54.789 136.104 54.6931 136.404C54.6016 136.691 54.5861 136.971 54.6464 137.245C54.7007 137.523 54.8359 137.769 55.0521 137.986C55.2682 138.203 55.5752 138.375 55.9728 138.501L58.3311 139.254L57.8133 140.877Z" fill="#979797"/>
<path d="M43.6715 134.641L44.4253 133.113L49.3873 135.562L48.6335 137.089L43.6715 134.641ZM46.1421 140.674L50.8324 131.168L52.7911 132.135L48.1008 141.641L46.1421 140.674ZM40.364 137.824L45.0543 128.317L47.0064 129.281L42.3162 138.787L40.364 137.824Z" fill="#979797"/>
<path d="M33.7549 127.177L34.0456 126.768C34.5119 126.111 35.0195 125.584 35.5684 125.188C36.1173 124.792 36.6846 124.525 37.2704 124.387C37.8534 124.253 38.4393 124.249 39.0282 124.376C39.6131 124.499 40.1787 124.755 40.7249 125.142C41.2672 125.527 41.6951 125.977 42.0088 126.491C42.3184 127.002 42.5083 127.556 42.5784 128.154C42.6457 128.755 42.585 129.381 42.3963 130.033C42.2037 130.682 41.8742 131.335 41.408 131.992L41.1172 132.402C40.6482 133.063 40.1406 133.589 39.5945 133.982C39.0456 134.378 38.4783 134.645 37.8925 134.782C37.3027 134.917 36.7154 134.923 36.1304 134.8C35.5416 134.673 34.976 134.418 34.4337 134.033C33.8875 133.645 33.4595 133.196 33.1499 132.685C32.8363 132.17 32.6478 131.614 32.5844 131.016C32.5171 130.414 32.5798 129.789 32.7725 129.14C32.9583 128.493 33.2858 127.838 33.7549 127.177ZM35.8446 128.044L35.5455 128.466C35.2197 128.925 34.9747 129.358 34.8107 129.765C34.6466 130.173 34.5615 130.553 34.5552 130.905C34.549 131.258 34.6205 131.577 34.7698 131.861C34.9162 132.15 35.1399 132.401 35.4407 132.614C35.7415 132.827 36.0522 132.956 36.3728 132.999C36.6867 133.043 37.009 133.004 37.3398 132.881C37.6667 132.756 37.9953 132.549 38.3256 132.26C38.6559 131.97 38.984 131.596 39.3098 131.137L39.6089 130.715C39.9319 130.26 40.1769 129.827 40.3438 129.416C40.5078 129.008 40.5944 128.626 40.6034 128.27C40.6097 127.917 40.5396 127.597 40.3931 127.308C40.2466 127.02 40.023 126.769 39.7222 126.555C39.4213 126.342 39.1106 126.214 38.79 126.171C38.4694 126.128 38.1457 126.169 37.8188 126.294C37.4891 126.423 37.1591 126.632 36.8288 126.921C36.4957 127.215 36.1677 127.589 35.8446 128.044Z" fill="#979797"/>
<path d="M18.1534 103.975L9.86888 103.066L8.96429 101.078L18.6127 96.6875L19.5173 98.6755L12.9966 101.643L21.2812 102.552L22.1858 104.54L12.5374 108.93L11.6328 106.942L18.1534 103.975Z" fill="#979797"/>
<path d="M14.347 87.8598L15.9905 87.4112L18.0016 94.7788L16.3582 95.2274L14.347 87.8598ZM16.1875 94.6023L20.3384 93.4693L20.879 95.4499L16.7589 96.6953L16.1875 94.6023ZM13.9329 86.3428L18.1406 85.3904L18.6678 87.3219L14.51 88.4568L13.9329 86.3428ZM6.08073 91.3615L7.73123 90.911L9.07519 95.8344L7.42468 96.285L6.08073 91.3615ZM5.67045 89.8585L15.8966 87.0671L16.4698 89.1671L6.24369 91.9585L5.67045 89.8585ZM7.49562 96.5448L6.92046 94.4378L11.1601 93.5748C11.8599 93.4291 12.4891 93.3378 13.0476 93.3011C13.6001 93.2609 14.0958 93.2615 14.5347 93.3027C14.9723 93.3392 15.3652 93.4055 15.7135 93.5016C16.057 93.599 16.3657 93.716 16.6394 93.8526C16.9085 93.9905 17.1548 94.1371 17.3783 94.2924C17.5972 94.449 17.803 94.6041 17.9959 94.7577L18.3256 95.9658L16.6822 96.4144L16.5537 95.9438C16.4043 95.8387 16.2108 95.7381 15.9732 95.6419C15.7344 95.5411 15.4302 95.4681 15.0607 95.4231C14.6852 95.3747 14.2259 95.3692 13.6827 95.4068C13.1383 95.4397 12.4891 95.5314 11.7353 95.6818L7.49562 96.5448Z" fill="#979797"/>
<path d="M13.2394 79.1399L14.9308 78.9363L15.605 84.5382L13.9136 84.7418L13.2394 79.1399ZM4.99545 85.0965L15.5198 83.8298L15.7807 85.9983L5.25643 87.2649L4.99545 85.0965ZM8.78071 80.4171L10.4288 80.2188L11.0151 85.0906L9.36705 85.289L8.78071 80.4171ZM4.40738 80.2102L6.10601 80.0057L6.77934 85.6004L5.08071 85.8048L4.40738 80.2102Z" fill="#979797"/>
<path d="M6.18562 73.5898L14.8997 76.6875L14.8427 79.0092L4.34228 74.8117L4.37852 73.3342L6.18562 73.5898ZM15.0292 71.4108L6.17348 74.0847L4.35549 74.2731L4.39209 72.7811L15.0863 69.0817L15.0292 71.4108ZM11.0812 71.445L12.7915 71.487L12.6542 77.0839L10.9438 77.0419L11.0812 71.445Z" fill="#979797"/>
<path d="M6.06974 59.4981L7.7525 59.8071L6.8006 64.9914L5.11784 64.6825L6.06974 59.4981ZM6.3511 57.9657L16.7771 59.88L16.3826 62.0282L5.95667 60.1139L6.3511 57.9657ZM5.06788 64.9546L5.46099 62.8135L10.6468 64.0396C11.4227 64.2215 12.0894 64.4204 12.6469 64.6363C13.2052 64.8473 13.6706 65.0808 14.0431 65.3367C14.4108 65.5918 14.6942 65.8757 14.8933 66.1887C15.0886 66.4959 15.2106 66.8391 15.2595 67.2182C15.3035 67.5963 15.2835 68.0146 15.1993 68.4729L15.102 69.0028L13.4264 68.6951L13.4549 68.4191C13.474 68.1808 13.4496 67.9641 13.3818 67.769C13.314 67.574 13.1912 67.396 13.0135 67.2351C12.8367 67.0694 12.6006 66.9175 12.3052 66.7793C12.0059 66.6356 11.6339 66.4982 11.1891 66.3672C10.7452 66.2314 10.2219 66.0983 9.61916 65.9679L5.06788 64.9546Z" fill="#979797"/>
<path d="M11.2409 55.1958L12.0529 52.8574C12.3268 52.0688 12.6931 51.4356 13.1519 50.9578C13.6107 50.4801 14.1296 50.1696 14.7085 50.0264C15.2874 49.8832 15.891 49.9207 16.5191 50.1388C16.996 50.3044 17.4013 50.5428 17.7351 50.854C18.0643 51.1635 18.3152 51.5358 18.4878 51.9708C18.6575 52.3997 18.739 52.875 18.7325 53.3968C18.726 53.9186 18.62 54.4753 18.4146 55.0667L17.1344 58.753L7.12082 55.2755L7.83973 53.2054L16.244 56.124L16.8053 54.5078C16.9422 54.1135 16.9819 53.7625 16.9244 53.4548C16.8668 53.1471 16.7388 52.8868 16.5404 52.6741C16.339 52.4551 16.0893 52.2939 15.7912 52.1904C15.507 52.0917 15.2271 52.069 14.9517 52.1224C14.6733 52.1695 14.423 52.2984 14.2009 52.509C13.9787 52.7196 13.7992 53.022 13.6623 53.4163L12.8502 55.7547L11.2409 55.1958Z" fill="#979797"/>
<path d="M17.8204 41.2662L19.3283 42.059L16.7535 46.9565L15.2456 46.1637L17.8204 41.2662ZM11.7258 43.5811L21.1083 48.514L20.092 50.4472L10.7094 45.5144L11.7258 43.5811ZM14.7241 37.8782L24.1067 42.811L23.0937 44.7378L13.7111 39.8049L14.7241 37.8782Z" fill="#979797"/>
<path d="M25.6063 31.4876L26.0072 31.7904C26.65 32.2761 27.1612 32.7991 27.5407 33.3596C27.9203 33.9201 28.1702 34.4951 28.2904 35.0848C28.4068 35.6715 28.3931 36.2573 28.2493 36.8421C28.1085 37.4231 27.8362 37.9808 27.4324 38.5152C27.0316 39.0458 26.5695 39.4601 26.0462 39.7583C25.5258 40.0525 24.9661 40.2258 24.367 40.278C23.764 40.3274 23.1396 40.248 22.4938 40.0399C21.851 39.828 21.2081 39.4792 20.5653 38.9935L20.1644 38.6907C19.5177 38.2021 19.0065 37.679 18.6309 37.1215C18.2513 36.561 18.0014 35.986 17.8812 35.3963C17.7639 34.8028 17.7756 34.2155 17.9165 33.6346C18.0603 33.0497 18.3326 32.492 18.7334 31.9615C19.1372 31.4271 19.5992 31.0127 20.1196 30.7185C20.6429 30.4204 21.2046 30.2486 21.8046 30.2031C22.4076 30.1538 23.0305 30.2351 23.6734 30.447C24.3153 30.6521 24.9596 30.999 25.6063 31.4876ZM24.6774 33.5505L24.265 33.2389C23.8157 32.8995 23.39 32.6418 22.9878 32.4656C22.5855 32.2895 22.2083 32.193 21.856 32.1763C21.5036 32.1595 21.1831 32.2215 20.8943 32.3622C20.6016 32.5 20.3441 32.716 20.1217 33.0104C19.8994 33.3047 19.7619 33.6114 19.7094 33.9306C19.6558 34.243 19.6853 34.5664 19.7977 34.9007C19.913 35.2311 20.1104 35.5658 20.3897 35.9045C20.6691 36.2433 21.0334 36.5824 21.4826 36.9218L21.895 37.2334C22.3404 37.5699 22.7661 37.8276 23.1722 38.0067C23.5744 38.1828 23.9537 38.2808 24.3098 38.3004C24.6622 38.3172 24.9846 38.2567 25.2773 38.1189C25.57 37.9811 25.8275 37.7651 26.0499 37.4708C26.2722 37.1764 26.4097 36.8697 26.4622 36.5505C26.5148 36.2313 26.4834 35.9065 26.3681 35.576C26.2489 35.2427 26.0496 34.9066 25.7703 34.5678C25.487 34.2261 25.1228 33.887 24.6774 33.5505Z" fill="#979797"/>
<path d="M44.8619 18.712L45.3877 10.3943L47.3318 9.39886L52.1631 18.8341L50.219 19.8296L46.9539 13.453L46.4281 21.7707L44.484 22.7662L39.6527 13.3309L41.5968 12.3355L44.8619 18.712Z" fill="#979797"/>
<path d="M60.8832 14.1133L61.4064 15.7346L54.1382 18.0797L53.6151 16.4584L60.8832 14.1133ZM54.2317 16.2595L55.5529 20.3543L53.5991 20.9847L52.167 16.9257L54.2317 16.2595ZM62.3798 13.6304L63.5231 17.7903L61.6178 18.4051L60.2943 14.3033L62.3798 13.6304ZM57.0082 6.01535L57.5335 7.64359L52.6765 9.21072L52.1512 7.58248L57.0082 6.01535ZM58.4909 5.53694L61.7459 15.6251L59.6742 16.2935L56.4192 6.20538L58.4909 5.53694ZM51.8948 7.6652L53.9734 6.99453L55.0289 11.1904C55.2064 11.8828 55.3262 12.5072 55.3884 13.0634C55.4537 13.6135 55.4758 14.1088 55.4547 14.5491C55.4382 14.9879 55.3898 15.3834 55.3097 15.7357C55.2281 16.0833 55.1253 16.397 55.0013 16.6767C54.8759 16.9518 54.7406 17.2045 54.5957 17.4349C54.4492 17.6606 54.3037 17.8733 54.159 18.073L52.9673 18.4575L52.4441 16.8362L52.9084 16.6864C53.0065 16.5324 53.0982 16.3345 53.1835 16.0928C53.2733 15.8496 53.3323 15.5424 53.3604 15.1712C53.3917 14.794 53.3762 14.3349 53.3138 13.794C53.2561 13.2516 53.1349 12.6073 52.9503 11.8611L51.8948 7.6652Z" fill="#979797"/>
<path d="M69.3374 12.6218L69.6229 14.3013L64.0604 15.2469L63.7749 13.5674L69.3374 12.6218ZM62.9872 4.67705L64.7638 15.1274L62.6106 15.4934L60.8339 5.04312L62.9872 4.67705ZM67.8449 8.2304L68.1231 9.86685L63.2856 10.6893L63.0074 9.05284L67.8449 8.2304ZM67.8391 3.85218L68.1258 5.53887L62.5705 6.48333L62.2838 4.79663L67.8391 3.85218Z" fill="#979797"/>
<path d="M74.8451 5.28703L72.1352 14.1294L69.8132 14.175L73.543 3.49944L75.0206 3.47041L74.8451 5.28703ZM77.4125 14.0257L74.3501 5.29675L74.0816 3.48886L75.5738 3.45954L79.7418 13.98L77.4125 14.0257ZM77.204 10.0831L77.2376 11.7936L71.64 11.9036L71.6064 10.193L77.204 10.0831Z" fill="#979797"/>
<path d="M88.7877 4.52062L88.5525 6.21528L83.3315 5.49069L83.5667 3.79604L88.7877 4.52062ZM90.3309 4.7348L88.8737 15.2344L86.7104 14.9342L88.1675 4.43456L90.3309 4.7348ZM83.2927 3.75801L85.4489 4.05725L84.4505 9.29167C84.3026 10.0748 84.133 10.7495 83.9417 11.3159C83.7552 11.8829 83.5422 12.358 83.3028 12.7413C83.0641 13.1198 82.7928 13.4154 82.4889 13.628C82.1904 13.8365 81.8529 13.9734 81.4764 14.0387C81.1004 14.0993 80.6817 14.0975 80.2202 14.0335L79.6866 13.9594L79.9208 12.272L80.1978 12.2884C80.4367 12.297 80.6521 12.2632 80.844 12.1869C81.0359 12.1107 81.2083 11.9802 81.3613 11.7957C81.5192 11.6118 81.6606 11.3692 81.7857 11.0681C81.9163 10.7628 82.0373 10.3851 82.1488 9.9351C82.265 9.48573 82.3752 8.9571 82.4791 8.34921L83.2927 3.75801Z" fill="#979797"/>
<path d="M93.4534 9.50651L95.825 10.2158C96.6248 10.455 97.2733 10.7934 97.7707 11.2309C98.268 11.6684 98.6008 12.1732 98.7691 12.7453C98.9374 13.3175 98.9263 13.9221 98.7358 14.5591C98.5912 15.0428 98.3707 15.4581 98.0744 15.8051C97.7795 16.1475 97.4185 16.4145 96.9914 16.6059C96.5704 16.7941 96.099 16.8963 95.5774 16.9125C95.0559 16.9288 94.4951 16.8472 93.8953 16.6678L90.1566 15.5496L93.194 5.39384L95.2935 6.02177L92.7443 14.5454L94.3834 15.0356C94.7833 15.1552 95.1357 15.1795 95.4406 15.1086C95.7456 15.0377 96 14.8985 96.2039 14.691C96.4138 14.4802 96.564 14.2237 96.6544 13.9214C96.7406 13.6331 96.7511 13.3526 96.6858 13.0797C96.6265 12.8036 96.4868 12.5592 96.2668 12.3465C96.0467 12.1337 95.7367 11.9676 95.3368 11.848L92.9653 11.1387L93.4534 9.50651Z" fill="#979797"/>
<path d="M107.501 15.3827L106.775 16.924L101.769 14.567L102.495 13.0257L107.501 15.3827ZM104.92 9.39573L100.405 18.9862L98.4288 18.0558L102.944 8.46536L104.92 9.39573ZM110.75 12.1403L106.234 21.7308L104.265 20.8035L108.78 11.2131L110.75 12.1403Z" fill="#979797"/>
<path d="M117.445 22.5395L117.161 22.9545C116.708 23.6202 116.21 24.1561 115.668 24.5623C115.127 24.9685 114.565 25.246 113.982 25.3947C113.401 25.5393 112.815 25.554 112.224 25.4387C111.637 25.3262 111.067 25.0812 110.514 24.7038C109.964 24.3292 109.528 23.8877 109.205 23.3795C108.886 22.874 108.686 22.3233 108.604 21.7274C108.526 21.1275 108.575 20.5 108.751 19.8449C108.932 19.1925 109.249 18.5335 109.703 17.8679L109.986 17.4529C110.443 16.7833 110.941 16.2473 111.479 15.8451C112.021 15.4389 112.583 15.1614 113.166 15.0128C113.753 14.8668 114.34 14.8501 114.928 14.9627C115.519 15.078 116.089 15.3229 116.638 15.6976C117.192 16.075 117.628 16.5164 117.947 17.0219C118.27 17.5302 118.469 18.0829 118.543 18.68C118.622 19.2799 118.571 19.9061 118.39 20.5584C118.216 21.2095 117.901 21.8699 117.445 22.5395ZM115.339 21.7116L115.63 21.2845C115.947 20.8194 116.184 20.3817 116.341 19.9714C116.497 19.5611 116.575 19.1796 116.575 18.8269C116.575 18.4742 116.497 18.157 116.343 17.8753C116.191 17.5897 115.963 17.3429 115.658 17.1351C115.353 16.9273 115.04 16.8048 114.719 16.7678C114.404 16.7295 114.083 16.7745 113.754 16.903C113.43 17.0342 113.105 17.2475 112.78 17.5429C112.455 17.8384 112.134 18.2187 111.817 18.6838L111.526 19.1108C111.211 19.572 110.974 20.0097 110.815 20.424C110.659 20.8343 110.579 21.2178 110.577 21.5745C110.577 21.9272 110.653 22.2464 110.805 22.5321C110.957 22.8177 111.185 23.0645 111.49 23.2723C111.795 23.4802 112.108 23.6026 112.429 23.6396C112.75 23.6767 113.073 23.6296 113.398 23.4984C113.725 23.3632 114.051 23.1479 114.376 22.8524C114.703 22.553 115.025 22.1727 115.339 21.7116Z" fill="#979797"/>
<path d="M131.48 41.551L139.813 41.7235L140.89 43.6236L131.668 48.8508L130.591 46.9507L136.823 43.418L128.491 43.2455L127.414 41.3454L136.636 36.1182L137.713 38.0183L131.48 41.551Z" fill="#979797"/>
<path d="M136.703 57.1602L135.107 57.7571L132.432 50.604L134.027 50.0072L136.703 57.1602ZM134.254 50.614L130.224 52.1215L129.505 50.1986L133.494 48.582L134.254 50.614ZM137.254 58.6331L133.151 59.9658L132.449 58.0906L136.486 56.5806L137.254 58.6331ZM144.615 52.9182L143.012 53.5176L141.224 48.7375L142.827 48.1381L144.615 52.9182ZM145.161 54.3774L135.232 58.0912L134.47 56.0524L144.398 52.3386L145.161 54.3774ZM142.732 47.8858L143.498 49.9315L139.355 51.1781C138.671 51.3871 138.053 51.5355 137.5 51.6231C136.953 51.7135 136.46 51.7583 136.019 51.7573C135.58 51.7609 135.182 51.7308 134.827 51.6669C134.476 51.6012 134.158 51.5129 133.873 51.4019C133.592 51.2892 133.334 51.1657 133.097 51.0315C132.865 50.8955 132.645 50.7598 132.439 50.6245L132.001 49.4516L133.596 48.8548L133.767 49.3116C133.926 49.4026 134.127 49.4852 134.373 49.5592C134.62 49.6378 134.929 49.6827 135.301 49.6938C135.68 49.7077 136.138 49.6712 136.675 49.5841C137.214 49.5016 137.852 49.3511 138.589 49.1324L142.732 47.8858Z" fill="#979797"/>
<path d="M138.593 65.5578L136.928 65.9188L135.733 60.4046L137.397 60.0436L138.593 65.5578ZM146.243 58.8556L135.884 61.1019L135.421 58.9674L145.78 56.7211L146.243 58.8556ZM142.913 63.8687L141.29 64.2205L140.251 59.425L141.873 59.0732L142.913 63.8687ZM147.286 63.6654L145.614 64.0279L144.42 58.5209L146.092 58.1583L147.286 63.6654Z" fill="#979797"/>
<path d="M146.163 70.4453L137.2 68.1634L137.043 65.8463L147.886 69.0587L147.986 70.5332L146.163 70.4453ZM137.558 73.4296L146.129 69.9513L147.922 69.5962L148.023 71.0853L137.715 75.754L137.558 73.4296ZM141.486 73.0319L139.779 73.1476L139.4 67.5618L141.107 67.4461L141.486 73.0319Z" fill="#979797"/>
<path d="M147.563 84.8287L145.86 84.6679L146.355 79.4202L148.059 79.581L147.563 84.8287ZM147.417 86.3798L136.863 85.3836L137.069 83.2091L147.622 84.2053L147.417 86.3798ZM148.085 79.3056L147.88 81.4728L142.607 80.7044C141.818 80.591 141.137 80.4511 140.562 80.2847C139.988 80.1232 139.504 79.9313 139.11 79.7089C138.722 79.4869 138.415 79.2288 138.189 78.9345C137.967 78.6455 137.816 78.3143 137.734 77.9409C137.657 77.568 137.641 77.1496 137.684 76.6857L137.735 76.1494L139.431 76.3095L139.427 76.587C139.429 76.826 139.472 77.0397 139.557 77.2281C139.641 77.4165 139.779 77.5831 139.97 77.7279C140.161 77.8775 140.409 78.0082 140.715 78.12C141.026 78.2371 141.409 78.3414 141.863 78.4331C142.317 78.5296 142.85 78.6165 143.462 78.6937L148.085 79.3056Z" fill="#979797"/>
<path d="M142.866 89.3192L142.27 91.7216C142.069 92.5318 141.761 93.1956 141.348 93.713C140.934 94.2305 140.446 94.5868 139.882 94.7819C139.319 94.977 138.714 94.9945 138.069 94.8342C137.579 94.7126 137.154 94.512 136.793 94.2324C136.437 93.954 136.153 93.606 135.942 93.1884C135.734 92.7768 135.61 92.3108 135.569 91.7905C135.528 91.2703 135.583 90.7063 135.734 90.0987L136.674 86.3114L146.962 88.8659L146.434 90.9927L137.8 88.8488L137.387 90.5092C137.287 90.9143 137.279 91.2675 137.364 91.5687C137.45 91.8699 137.601 92.1175 137.818 92.3114C138.038 92.5111 138.301 92.649 138.608 92.7251C138.9 92.7976 139.18 92.7948 139.45 92.7167C139.723 92.6444 139.96 92.4934 140.162 92.2635C140.365 92.0336 140.516 91.7161 140.616 91.311L141.213 88.9086L142.866 89.3192Z" fill="#979797"/>
<path d="M137.501 104.026L135.93 103.369L138.065 98.2643L139.637 98.9217L137.501 104.026ZM143.369 101.185L133.59 97.0949L134.433 95.0799L144.212 99.1706L143.369 101.185ZM140.883 107.13L131.104 103.039L131.944 101.031L141.723 105.121L140.883 107.13Z" fill="#979797"/>
<path d="M130.769 114.286L130.342 114.022C129.657 113.598 129.099 113.125 128.669 112.602C128.239 112.079 127.937 111.53 127.763 110.954C127.592 110.38 127.552 109.796 127.64 109.2C127.727 108.609 127.946 108.028 128.299 107.458C128.648 106.893 129.07 106.438 129.563 106.092C130.054 105.751 130.595 105.526 131.187 105.419C131.783 105.314 132.412 105.335 133.074 105.482C133.734 105.633 134.407 105.921 135.092 106.345L135.519 106.609C136.208 107.036 136.766 107.509 137.191 108.029C137.621 108.552 137.924 109.102 138.098 109.677C138.27 110.258 138.313 110.843 138.226 111.435C138.138 112.031 137.918 112.611 137.568 113.177C137.216 113.746 136.794 114.202 136.303 114.543C135.81 114.888 135.267 115.111 134.674 115.212C134.078 115.318 133.45 115.294 132.79 115.143C132.132 114.998 131.458 114.713 130.769 114.286ZM131.502 112.146L131.942 112.418C132.421 112.714 132.869 112.931 133.285 113.069C133.702 113.208 134.087 113.269 134.439 113.253C134.792 113.237 135.105 113.145 135.38 112.978C135.658 112.814 135.895 112.575 136.089 112.261C136.283 111.947 136.391 111.629 136.414 111.307C136.438 110.991 136.379 110.671 136.236 110.349C136.09 110.031 135.863 109.716 135.553 109.404C135.244 109.093 134.849 108.789 134.371 108.493L133.931 108.221C133.456 107.927 133.009 107.71 132.588 107.569C132.171 107.431 131.784 107.369 131.428 107.383C131.075 107.399 130.76 107.489 130.481 107.653C130.203 107.817 129.966 108.056 129.772 108.37C129.578 108.684 129.47 109.002 129.447 109.325C129.424 109.647 129.486 109.968 129.631 110.286C129.781 110.607 130.01 110.923 130.32 111.235C130.634 111.549 131.028 111.852 131.502 112.146Z" fill="#979797"/>
</svg>
